<svg width="187" height="137" viewBox="0 0 187 137" fill="none" xmlns="http://www.w3.org/2000/svg">
<g opacity="0.8" clip-path="url(#clip0_103_7)">
<path d="M5.3356 40.2644C5.3356 41.7838 4.19226 42.9233 2.6678 42.9233C1.14334 42.9233 0 41.7838 0 40.2644C0 38.745 1.14334 37.6054 2.6678 37.6054C4.19226 37.6054 5.3356 38.8716 5.3356 40.2644Z" fill="white"/>
<path d="M28.0755 40.2644C28.0755 41.7838 26.9321 42.9233 25.4077 42.9233C23.8832 42.9233 22.7399 41.7838 22.7399 40.2644C22.7399 38.745 23.8832 37.6054 25.4077 37.6054C26.8051 37.6054 28.0755 38.8716 28.0755 40.2644Z" fill="white"/>
<path d="M50.688 40.2644C50.688 41.7838 49.5447 42.9233 48.0202 42.9233C46.4958 42.9233 45.3524 41.7838 45.3524 40.2644C45.3524 38.745 46.4958 37.6054 48.0202 37.6054C49.5447 37.6054 50.688 38.8716 50.688 40.2644Z" fill="white"/>
<path d="M73.4279 40.2644C73.4279 41.7838 72.2845 42.9233 70.7601 42.9233C69.2356 42.9233 68.0923 41.7838 68.0923 40.2644C68.0923 38.745 69.2356 37.6054 70.7601 37.6054C72.2845 37.6054 73.4279 38.8716 73.4279 40.2644Z" fill="white"/>
<path d="M96.1677 40.2644C96.1677 41.7838 95.0244 42.9233 93.5 42.9233C91.9755 42.9233 90.8322 41.7838 90.8322 40.2644C90.8322 38.745 91.9755 37.6054 93.5 37.6054C94.8974 37.6054 96.1677 38.8716 96.1677 40.2644Z" fill="white"/>
<path d="M118.908 40.2644C118.908 41.7838 117.764 42.9233 116.24 42.9233C114.715 42.9233 113.572 41.7838 113.572 40.2644C113.572 38.745 114.715 37.6054 116.24 37.6054C117.764 37.6054 118.908 38.8716 118.908 40.2644Z" fill="white"/>
<path d="M141.52 40.2644C141.52 41.7838 140.377 42.9233 138.852 42.9233C137.328 42.9233 136.185 41.7838 136.185 40.2644C136.185 38.745 137.328 37.6054 138.852 37.6054C140.377 37.6054 141.52 38.8716 141.52 40.2644Z" fill="white"/>
<path d="M164.26 40.2644C164.26 41.7838 163.117 42.9233 161.592 42.9233C160.068 42.9233 158.925 41.7838 158.925 40.2644C158.925 38.745 160.068 37.6054 161.592 37.6054C163.117 37.6054 164.26 38.8716 164.26 40.2644Z" fill="white"/>
<path d="M187 40.2644C187 41.7838 185.857 42.9233 184.332 42.9233C182.808 42.9233 181.664 41.7838 181.664 40.2644C181.664 38.745 182.808 37.6054 184.332 37.6054C185.73 37.6054 187 38.8716 187 40.2644Z" fill="white"/>
<path d="M5.3356 59.1302C5.3356 60.6496 4.19226 61.7892 2.6678 61.7892C1.14334 61.7892 0 60.6496 0 59.1302C0 57.6108 1.14334 56.4713 2.6678 56.4713C4.19226 56.4713 5.3356 57.6108 5.3356 59.1302Z" fill="white"/>
<path d="M28.0755 59.1302C28.0755 60.6496 26.9321 61.7892 25.4077 61.7892C23.8832 61.7892 22.7399 60.6496 22.7399 59.1302C22.7399 57.6108 23.8832 56.4713 25.4077 56.4713C26.8051 56.4713 28.0755 57.6108 28.0755 59.1302Z" fill="white"/>
<path d="M50.688 59.1302C50.688 60.6496 49.5447 61.7892 48.0202 61.7892C46.4958 61.7892 45.3524 60.6496 45.3524 59.1302C45.3524 57.6108 46.4958 56.4713 48.0202 56.4713C49.5447 56.4713 50.688 57.6108 50.688 59.1302Z" fill="white"/>
<path d="M73.4279 59.1302C73.4279 60.6496 72.2845 61.7892 70.7601 61.7892C69.2356 61.7892 68.0923 60.6496 68.0923 59.1302C68.0923 57.6108 69.2356 56.4713 70.7601 56.4713C72.2845 56.4713 73.4279 57.6108 73.4279 59.1302Z" fill="white"/>
<path d="M96.1677 59.1302C96.1677 60.6496 95.0244 61.7892 93.5 61.7892C91.9755 61.7892 90.8322 60.6496 90.8322 59.1302C90.8322 57.6108 91.9755 56.4713 93.5 56.4713C94.8974 56.4713 96.1677 57.6108 96.1677 59.1302Z" fill="white"/>
<path d="M118.908 59.1302C118.908 60.6496 117.764 61.7892 116.24 61.7892C114.715 61.7892 113.572 60.6496 113.572 59.1302C113.572 57.6108 114.715 56.4713 116.24 56.4713C117.764 56.4713 118.908 57.6108 118.908 59.1302Z" fill="white"/>
<path d="M141.52 59.1302C141.52 60.6496 140.377 61.7892 138.852 61.7892C137.328 61.7892 136.185 60.6496 136.185 59.1302C136.185 57.6108 137.328 56.4713 138.852 56.4713C140.377 56.4713 141.52 57.6108 141.52 59.1302Z" fill="white"/>
<path d="M164.26 59.1302C164.26 60.6496 163.117 61.7892 161.592 61.7892C160.068 61.7892 158.925 60.6496 158.925 59.1302C158.925 57.6108 160.068 56.4713 161.592 56.4713C163.117 56.4713 164.26 57.6108 164.26 59.1302Z" fill="white"/>
<path d="M187 59.1302C187 60.6496 185.857 61.7892 184.332 61.7892C182.808 61.7892 181.664 60.6496 181.664 59.1302C181.664 57.6108 182.808 56.4713 184.332 56.4713C185.73 56.4713 187 57.6108 187 59.1302Z" fill="white"/>
<path d="M5.3356 2.65896C5.3356 4.17837 4.19226 5.31793 2.6678 5.31793C1.14334 5.31793 0 4.17837 0 2.65896C0 1.13956 1.14334 0 2.6678 0C4.19226 0 5.3356 1.13956 5.3356 2.65896Z" fill="white"/>
<path d="M28.0755 2.65896C28.0755 4.17837 26.9321 5.31793 25.4077 5.31793C23.8832 5.31793 22.7399 4.17837 22.7399 2.65896C22.7399 1.13956 23.8832 0 25.4077 0C26.8051 0 28.0755 1.13956 28.0755 2.65896Z" fill="white"/>
<path d="M50.688 2.65896C50.688 4.17837 49.5447 5.31793 48.0202 5.31793C46.4958 5.31793 45.3524 4.17837 45.3524 2.65896C45.3524 1.13956 46.6228 0 48.0202 0C49.5447 0 50.688 1.13956 50.688 2.65896Z" fill="white"/>
<path d="M73.4279 2.65896C73.4279 4.17837 72.2845 5.31793 70.7601 5.31793C69.2356 5.31793 68.0923 4.17837 68.0923 2.65896C68.0923 1.13956 69.3627 0 70.7601 0C72.1575 0 73.4279 1.13956 73.4279 2.65896Z" fill="white"/>
<path d="M96.1677 2.65896C96.1677 4.17837 95.0244 5.31793 93.5 5.31793C91.9755 5.31793 90.8322 4.17837 90.8322 2.65896C90.8322 1.13956 91.9755 0 93.5 0C94.8974 0 96.1677 1.13956 96.1677 2.65896Z" fill="white"/>
<path d="M118.908 2.65896C118.908 4.17837 117.764 5.31793 116.24 5.31793C114.715 5.31793 113.572 4.17837 113.572 2.65896C113.572 1.13956 114.715 0 116.24 0C117.764 0 118.908 1.13956 118.908 2.65896Z" fill="white"/>
<path d="M141.52 2.65896C141.52 4.17837 140.377 5.31793 138.852 5.31793C137.328 5.31793 136.185 4.17837 136.185 2.65896C136.185 1.13956 137.328 0 138.852 0C140.377 0 141.52 1.13956 141.52 2.65896Z" fill="white"/>
<path d="M164.26 2.65896C164.26 4.17837 163.117 5.31793 161.592 5.31793C160.068 5.31793 158.925 4.17837 158.925 2.65896C158.925 1.13956 160.068 0 161.592 0C163.117 0 164.26 1.13956 164.26 2.65896Z" fill="white"/>
<path d="M187 2.65896C187 4.17837 185.857 5.31793 184.332 5.31793C182.808 5.31793 181.664 4.17837 181.664 2.65896C181.664 1.13956 182.808 0 184.332 0C185.73 0 187 1.13956 187 2.65896Z" fill="white"/>
<path d="M5.3356 21.5251C5.3356 23.0445 4.19226 24.184 2.6678 24.184C1.14334 24.184 0 22.9178 0 21.5251C0 20.0056 1.14334 18.8661 2.6678 18.8661C4.19226 18.8661 5.3356 20.0056 5.3356 21.5251Z" fill="white"/>
<path d="M28.0755 21.5251C28.0755 23.0445 26.9321 24.184 25.4077 24.184C23.8832 24.184 22.7399 23.0445 22.7399 21.5251C22.7399 20.0056 23.8832 18.8661 25.4077 18.8661C26.8051 18.8661 28.0755 20.0056 28.0755 21.5251Z" fill="white"/>
<path d="M50.688 21.5251C50.688 23.0445 49.5447 24.184 48.0202 24.184C46.4958 24.184 45.3524 23.0445 45.3524 21.5251C45.3524 20.0056 46.4958 18.8661 48.0202 18.8661C49.5447 18.8661 50.688 20.0056 50.688 21.5251Z" fill="white"/>
<path d="M73.4279 21.5251C73.4279 23.0445 72.2845 24.184 70.7601 24.184C69.2356 24.184 68.0923 23.0445 68.0923 21.5251C68.0923 20.0056 69.2356 18.8661 70.7601 18.8661C72.2845 18.8661 73.4279 20.0056 73.4279 21.5251Z" fill="white"/>
<path d="M96.1677 21.5251C96.1677 23.0445 95.0244 24.184 93.5 24.184C91.9755 24.184 90.8322 23.0445 90.8322 21.5251C90.8322 20.0056 91.9755 18.8661 93.5 18.8661C94.8974 18.8661 96.1677 20.0056 96.1677 21.5251Z" fill="white"/>
<path d="M118.908 21.5251C118.908 23.0445 117.764 24.184 116.24 24.184C114.715 24.184 113.572 23.0445 113.572 21.5251C113.572 20.0056 114.715 18.8661 116.24 18.8661C117.764 18.8661 118.908 20.0056 118.908 21.5251Z" fill="white"/>
<path d="M141.52 21.5251C141.52 23.0445 140.377 24.184 138.852 24.184C137.328 24.184 136.185 23.0445 136.185 21.5251C136.185 20.0056 137.328 18.8661 138.852 18.8661C140.377 18.8661 141.52 20.0056 141.52 21.5251Z" fill="white"/>
<path d="M164.26 21.5251C164.26 23.0445 163.117 24.184 161.592 24.184C160.068 24.184 158.925 23.0445 158.925 21.5251C158.925 20.0056 160.068 18.8661 161.592 18.8661C163.117 18.8661 164.26 20.0056 164.26 21.5251Z" fill="white"/>
<path d="M187 21.5251C187 23.0445 185.857 24.184 184.332 24.184C182.808 24.184 181.664 23.0445 181.664 21.5251C181.664 20.0056 182.808 18.8661 184.332 18.8661C185.73 18.8661 187 20.0056 187 21.5251Z" fill="white"/>
<path d="M5.3356 77.8698C5.3356 79.3892 4.19226 80.5287 2.6678 80.5287C1.14334 80.5287 0 79.3892 0 77.8698C0 76.3504 1.14334 75.2108 2.6678 75.2108C4.19226 75.2108 5.3356 76.477 5.3356 77.8698Z" fill="white"/>
<path d="M28.0755 77.8698C28.0755 79.3892 26.9321 80.5287 25.4077 80.5287C23.8832 80.5287 22.7399 79.3892 22.7399 77.8698C22.7399 76.3504 23.8832 75.2108 25.4077 75.2108C26.8051 75.2108 28.0755 76.477 28.0755 77.8698Z" fill="white"/>
<path d="M50.688 77.8698C50.688 79.3892 49.5447 80.5287 48.0202 80.5287C46.4958 80.5287 45.3524 79.3892 45.3524 77.8698C45.3524 76.3504 46.4958 75.2108 48.0202 75.2108C49.5447 75.2108 50.688 76.477 50.688 77.8698Z" fill="white"/>
<path d="M73.4279 77.8698C73.4279 79.3892 72.2845 80.5287 70.7601 80.5287C69.2356 80.5287 68.0923 79.3892 68.0923 77.8698C68.0923 76.3504 69.2356 75.2108 70.7601 75.2108C72.2845 75.2108 73.4279 76.477 73.4279 77.8698Z" fill="white"/>
<path d="M96.1677 77.8698C96.1677 79.3892 95.0244 80.5287 93.5 80.5287C91.9755 80.5287 90.8322 79.3892 90.8322 77.8698C90.8322 76.3504 91.9755 75.2108 93.5 75.2108C94.8974 75.2108 96.1677 76.477 96.1677 77.8698Z" fill="white"/>
<path d="M118.908 77.8698C118.908 79.3892 117.764 80.5287 116.24 80.5287C114.715 80.5287 113.572 79.3892 113.572 77.8698C113.572 76.3504 114.715 75.2108 116.24 75.2108C117.764 75.2108 118.908 76.477 118.908 77.8698Z" fill="white"/>
<path d="M141.52 77.8698C141.52 79.3892 140.377 80.5287 138.852 80.5287C137.328 80.5287 136.185 79.3892 136.185 77.8698C136.185 76.3504 137.328 75.2108 138.852 75.2108C140.377 75.2108 141.52 76.477 141.52 77.8698Z" fill="white"/>
<path d="M164.26 77.8698C164.26 79.3892 163.117 80.5287 161.592 80.5287C160.068 80.5287 158.925 79.3892 158.925 77.8698C158.925 76.3504 160.068 75.2108 161.592 75.2108C163.117 75.2108 164.26 76.477 164.26 77.8698Z" fill="white"/>
<path d="M187 77.8698C187 79.3892 185.857 80.5287 184.332 80.5287C182.808 80.5287 181.664 79.3892 181.664 77.8698C181.664 76.3504 182.808 75.2108 184.332 75.2108C185.73 75.2108 187 76.477 187 77.8698Z" fill="white"/>
<path d="M5.3356 96.7356C5.3356 98.255 4.19226 99.3946 2.6678 99.3946C1.14334 99.3946 0 98.255 0 96.7356C0 95.2162 1.14334 94.0767 2.6678 94.0767C4.19226 94.0767 5.3356 95.2162 5.3356 96.7356Z" fill="white"/>
<path d="M28.0755 96.7356C28.0755 98.255 26.9321 99.3946 25.4077 99.3946C23.8832 99.3946 22.7399 98.255 22.7399 96.7356C22.7399 95.2162 23.8832 94.0767 25.4077 94.0767C26.8051 94.0767 28.0755 95.2162 28.0755 96.7356Z" fill="white"/>
<path d="M50.688 96.7356C50.688 98.255 49.5447 99.3946 48.0202 99.3946C46.4958 99.3946 45.3524 98.255 45.3524 96.7356C45.3524 95.2162 46.4958 94.0767 48.0202 94.0767C49.5447 94.0767 50.688 95.2162 50.688 96.7356Z" fill="white"/>
<path d="M70.7601 99.3946C72.2335 99.3946 73.4279 98.2041 73.4279 96.7356C73.4279 95.2671 72.2335 94.0767 70.7601 94.0767C69.2867 94.0767 68.0923 95.2671 68.0923 96.7356C68.0923 98.2041 69.2867 99.3946 70.7601 99.3946Z" fill="white"/>
<path d="M96.1677 96.7356C96.1677 98.255 95.0244 99.3946 93.5 99.3946C91.9755 99.3946 90.8322 98.255 90.8322 96.7356C90.8322 95.2162 91.9755 94.0767 93.5 94.0767C94.8974 94.0767 96.1677 95.2162 96.1677 96.7356Z" fill="white"/>
<path d="M118.908 96.7356C118.908 98.255 117.764 99.3946 116.24 99.3946C114.715 99.3946 113.572 98.255 113.572 96.7356C113.572 95.2162 114.715 94.0767 116.24 94.0767C117.764 94.0767 118.908 95.2162 118.908 96.7356Z" fill="white"/>
<path d="M141.52 96.7356C141.52 98.255 140.377 99.3946 138.852 99.3946C137.328 99.3946 136.185 98.255 136.185 96.7356C136.185 95.2162 137.328 94.0767 138.852 94.0767C140.377 94.0767 141.52 95.2162 141.52 96.7356Z" fill="white"/>
<path d="M161.592 99.3946C163.066 99.3946 164.26 98.2041 164.26 96.7356C164.26 95.2671 163.066 94.0767 161.592 94.0767C160.119 94.0767 158.925 95.2671 158.925 96.7356C158.925 98.2041 160.119 99.3946 161.592 99.3946Z" fill="white"/>
<path d="M187 96.7356C187 98.255 185.857 99.3946 184.332 99.3946C182.808 99.3946 181.664 98.255 181.664 96.7356C181.664 95.2162 182.808 94.0767 184.332 94.0767C185.73 94.0767 187 95.2162 187 96.7356Z" fill="white"/>
<path d="M5.3356 115.602C5.3356 117.121 4.19226 118.261 2.6678 118.261C1.14334 118.261 0 117.121 0 115.602C0 114.082 1.14334 112.943 2.6678 112.943C4.19226 112.943 5.3356 114.082 5.3356 115.602Z" fill="white"/>
<path d="M28.0755 115.602C28.0755 117.121 26.9321 118.261 25.4077 118.261C23.8832 118.261 22.7399 117.121 22.7399 115.602C22.7399 114.082 23.8832 112.943 25.4077 112.943C26.8051 112.943 28.0755 114.082 28.0755 115.602Z" fill="white"/>
<path d="M50.688 115.602C50.688 117.121 49.5447 118.261 48.0202 118.261C46.4958 118.261 45.3524 117.121 45.3524 115.602C45.3524 114.082 46.4958 112.943 48.0202 112.943C49.5447 112.943 50.688 114.082 50.688 115.602Z" fill="white"/>
<path d="M73.4279 115.602C73.4279 117.121 72.2845 118.261 70.7601 118.261C69.2356 118.261 68.0923 117.121 68.0923 115.602C68.0923 114.082 69.2356 112.943 70.7601 112.943C72.2845 112.943 73.4279 114.082 73.4279 115.602Z" fill="white"/>
<path d="M96.1677 115.602C96.1677 117.121 95.0244 118.261 93.5 118.261C91.9755 118.261 90.8322 117.121 90.8322 115.602C90.8322 114.082 91.9755 112.943 93.5 112.943C94.8974 112.943 96.1677 114.082 96.1677 115.602Z" fill="white"/>
<path d="M118.908 115.602C118.908 117.121 117.764 118.261 116.24 118.261C114.715 118.261 113.572 117.121 113.572 115.602C113.572 114.082 114.715 112.943 116.24 112.943C117.764 112.943 118.908 114.082 118.908 115.602Z" fill="white"/>
<path d="M141.52 115.602C141.52 117.121 140.377 118.261 138.852 118.261C137.328 118.261 136.185 117.121 136.185 115.602C136.185 114.082 137.328 112.943 138.852 112.943C140.377 112.943 141.52 114.082 141.52 115.602Z" fill="white"/>
<path d="M164.26 115.602C164.26 117.121 163.117 118.261 161.592 118.261C160.068 118.261 158.925 117.121 158.925 115.602C158.925 114.082 160.068 112.943 161.592 112.943C163.117 112.943 164.26 114.082 164.26 115.602Z" fill="white"/>
<path d="M187 115.602C187 117.121 185.857 118.261 184.332 118.261C182.808 118.261 181.664 117.121 181.664 115.602C181.664 114.082 182.808 112.943 184.332 112.943C185.73 112.943 187 114.082 187 115.602Z" fill="white"/>
<path d="M5.3356 134.341C5.3356 135.86 4.19226 137 2.6678 137C1.14334 137 0 135.86 0 134.341C0 132.822 1.14334 131.682 2.6678 131.682C4.19226 131.682 5.3356 132.948 5.3356 134.341Z" fill="white"/>
<path d="M28.0755 134.341C28.0755 135.86 26.9321 137 25.4077 137C23.8832 137 22.7399 135.86 22.7399 134.341C22.7399 132.822 23.8832 131.682 25.4077 131.682C26.8051 131.682 28.0755 132.948 28.0755 134.341Z" fill="white"/>
<path d="M50.688 134.341C50.688 135.86 49.5447 137 48.0202 137C46.4958 137 45.3524 135.86 45.3524 134.341C45.3524 132.822 46.4958 131.682 48.0202 131.682C49.5447 131.682 50.688 132.948 50.688 134.341Z" fill="white"/>
<path d="M73.4279 134.341C73.4279 135.86 72.2845 137 70.7601 137C69.2356 137 68.0923 135.86 68.0923 134.341C68.0923 132.822 69.2356 131.682 70.7601 131.682C72.2845 131.682 73.4279 132.948 73.4279 134.341Z" fill="white"/>
<path d="M96.1677 134.341C96.1677 135.86 95.0244 137 93.5 137C91.9755 137 90.8322 135.86 90.8322 134.341C90.8322 132.822 91.9755 131.682 93.5 131.682C94.8974 131.682 96.1677 132.948 96.1677 134.341Z" fill="white"/>
<path d="M118.908 134.341C118.908 135.86 117.764 137 116.24 137C114.715 137 113.572 135.86 113.572 134.341C113.572 132.822 114.715 131.682 116.24 131.682C117.764 131.682 118.908 132.948 118.908 134.341Z" fill="white"/>
<path d="M141.52 134.341C141.52 135.86 140.377 137 138.852 137C137.328 137 136.185 135.86 136.185 134.341C136.185 132.822 137.328 131.682 138.852 131.682C140.377 131.682 141.52 132.948 141.52 134.341Z" fill="white"/>
<path d="M164.26 134.341C164.26 135.86 163.117 137 161.592 137C160.068 137 158.925 135.86 158.925 134.341C158.925 132.822 160.068 131.682 161.592 131.682C163.117 131.682 164.26 132.948 164.26 134.341Z" fill="white"/>
<path d="M187 134.341C187 135.86 185.857 137 184.332 137C182.808 137 181.664 135.86 181.664 134.341C181.664 132.822 182.808 131.682 184.332 131.682C185.73 131.682 187 132.948 187 134.341Z" fill="white"/>
</g>
<defs>
<clipPath id="clip0_103_7">
<rect width="187" height="137" fill="white"/>
</clipPath>
</defs>
</svg>
