<svg width="242" height="242" viewBox="0 0 242 242" fill="none" xmlns="http://www.w3.org/2000/svg">
<g opacity="0.12" clip-path="url(#clip0_101_3)">
<path d="M121.083 0C54.1469 0 0 54.1469 0 121.083C0 187.853 54.1469 242.166 121.083 242.166C187.853 242.166 242.166 188.019 242.166 121.083C242 54.1469 187.853 0 121.083 0ZM121.083 234.36C58.4653 234.36 7.80645 183.701 7.80645 121.083C7.80645 58.4653 58.4653 7.80645 121.083 7.80645C183.701 7.80645 234.36 58.4653 234.36 121.083C234.36 183.535 183.535 234.36 121.083 234.36Z" fill="#FFCF2D"/>
<path d="M121.083 26.0758C68.7634 26.0758 26.2431 68.5961 26.2431 120.916C26.2431 173.236 68.7634 215.756 121.083 215.756C173.403 215.756 215.923 173.402 215.923 121.082C215.923 68.5961 173.403 26.0758 121.083 26.0758ZM121.083 201.306C76.7359 201.306 40.6933 165.263 40.6933 120.916C40.6933 76.5686 76.7359 40.5261 121.083 40.5261C165.43 40.5261 201.473 76.5686 201.473 120.916C201.473 165.263 165.43 201.306 121.083 201.306Z" fill="#FFCF2D"/>
</g>
<defs>
<clipPath id="clip0_101_3">
<rect width="242" height="242" fill="white"/>
</clipPath>
</defs>
</svg>
